<svg width="33" height="33" viewBox="0 0 33 33" fill="none" xmlns="http://www.w3.org/2000/svg">
<g clip-path="url(#clip0)">
<path d="M26.903 21.1946C27.581 22.59 24.0663 26.4345 20.576 27.4033C17.0688 28.3795 12.1578 26.1091 9.68922 23.7698C7.23167 21.4453 4.54051 16.6781 6.11511 15.6245C7.68971 14.5708 11.3532 20.7911 15.0765 21.8126C19.5377 24.011 26.8802 20.8416 26.903 21.1946Z" fill="black"/>
<path d="M27.2112 15.8804C25.7553 17.7853 22.7337 17.3279 22.6668 15.1967C22.6106 13.0684 25.5118 9.25569 27.0318 9.49255C28.544 9.71595 28.6672 13.9755 27.2112 15.8804Z" fill="black"/>
<path d="M12.7223 11.9981C11.2664 13.903 8.24485 13.4456 8.17796 11.3144C8.1217 9.18611 11.0229 5.37341 12.5429 5.61026C14.0551 5.83367 14.1783 10.0932 12.7223 11.9981Z" fill="black"/>
</g>
<defs>
<clipPath id="clip0">
<rect width="27" height="25" fill="white" transform="translate(6.69524 0.93187) rotate(15)"/>
</clipPath>
</defs>
</svg>
